<svg width="50" height="50" viewBox="0 0 50 50" fill="none" xmlns="http://www.w3.org/2000/svg">
<path d="M8.33331 39.5833V12.9167C8.33331 10.5831 8.33331 9.41633 8.78746 8.52504C9.18692 7.74102 9.82433 7.1036 10.6084 6.70415C11.4996 6.25 12.6664 6.25 15 6.25H35C37.3335 6.25 38.5004 6.25 39.3916 6.70415C40.1756 7.1036 40.8131 7.74102 41.2125 8.52504C41.6666 9.41633 41.6666 10.5831 41.6666 12.9167V35.4167H12.5C10.1988 35.4167 8.33331 37.2821 8.33331 39.5833ZM8.33331 39.5833C8.33331 41.8846 10.1988 43.75 12.5 43.75H41.6666M18.75 14.5833H31.25M18.75 22.9167H31.25M39.5833 35.4167V43.75" stroke="white" stroke-width="5" stroke-linecap="round" stroke-linejoin="round"/>
</svg>
