<svg width="50" height="50" viewBox="0 0 50 50" fill="none" xmlns="http://www.w3.org/2000/svg">
<path fill-rule="evenodd" clip-rule="evenodd" d="M23.3481 7.66604C23.106 8.02887 22.9167 8.64237 22.9167 9.375V12.5V22.9167C22.9167 24.0673 21.984 25 20.8333 25C19.6827 25 18.75 24.0673 18.75 22.9167V12.5C18.75 11.7674 18.5605 11.1539 18.3186 10.791C18.1179 10.49 17.9419 10.4167 17.7083 10.4167C17.4748 10.4167 17.2988 10.49 17.098 10.791C16.8561 11.1539 16.6667 11.7674 16.6667 12.5V25V31.25C16.6667 32.4006 15.7339 33.3333 14.5833 33.3333C13.4327 33.3333 12.5 32.4006 12.5 31.25V25C12.5 24.2673 12.3105 23.654 12.0686 23.291C11.8679 22.99 11.6919 22.9167 11.4583 22.9167C11.2248 22.9167 11.0487 22.99 10.848 23.291C10.6061 23.654 10.4167 24.2673 10.4167 25V33.3333C10.4167 35.4854 11.8762 37.7921 14.6973 39.6727C17.474 41.524 21.2373 42.7083 25 42.7083C32.6406 42.7083 37.5 38.0229 37.5 33.3333V18.75C37.5 18.0174 37.3106 17.4039 37.0685 17.041C36.8679 16.74 36.6919 16.6667 36.4583 16.6667C36.2248 16.6667 36.0487 16.74 35.8481 17.041C35.606 17.4039 35.4167 18.0174 35.4167 18.75V25C35.4167 26.1506 34.484 27.0833 33.3333 27.0833C32.1827 27.0833 31.25 26.1506 31.25 25V18.75V12.5C31.25 11.7674 31.0606 11.1539 30.8185 10.791C30.6179 10.49 30.4419 10.4167 30.2083 10.4167C29.9748 10.4167 29.7987 10.49 29.5981 10.791C29.356 11.1539 29.1667 11.7674 29.1667 12.5V22.9167C29.1667 24.0673 28.234 25 27.0833 25C25.9327 25 25 24.0673 25 22.9167V12.5V9.375C25 8.64237 24.8106 8.02887 24.5685 7.66604C24.3679 7.36496 24.1919 7.29167 23.9583 7.29167C23.7248 7.29167 23.5487 7.36496 23.3481 7.66604ZM28.6358 6.50504C29.1146 6.34156 29.6396 6.25 30.2083 6.25C32.0581 6.25 33.4446 7.21838 34.2856 8.47979C35.0852 9.67946 35.4167 11.1493 35.4167 12.5V12.6082C35.7454 12.5378 36.0927 12.5 36.4583 12.5C38.3081 12.5 39.6946 13.4684 40.5356 14.7298C41.3352 15.9295 41.6667 17.3993 41.6667 18.75V33.3333C41.6667 41.1437 34.026 46.875 25 46.875C20.4294 46.875 15.8594 45.4552 12.386 43.1398C8.95715 40.8537 6.25 37.4312 6.25 33.3333V25C6.25 23.6494 6.58137 22.1794 7.38115 20.9798C8.22208 19.7184 9.60852 18.75 11.4583 18.75C11.8239 18.75 12.1713 18.7878 12.5 18.8582V12.5C12.5 11.1493 12.8314 9.67946 13.6311 8.47979C14.4721 7.21838 15.8585 6.25 17.7083 6.25C18.2771 6.25 18.8021 6.34156 19.2809 6.50504C19.4407 6.10413 19.6396 5.71715 19.8811 5.35479C20.7221 4.09338 22.1085 3.125 23.9583 3.125C25.8081 3.125 27.1946 4.09338 28.0356 5.35479C28.2771 5.71715 28.4758 6.10413 28.6358 6.50504Z" fill="white"/>
</svg>
