<svg width="50" height="50" viewBox="0 0 50 50" fill="none" xmlns="http://www.w3.org/2000/svg">
<g clip-path="url(#clip0_11_276)">
<path fill-rule="evenodd" clip-rule="evenodd" d="M18.75 2.08333C18.75 0.93274 17.8172 0 16.6666 0C15.5161 0 14.5833 0.93274 14.5833 2.08333V3.125C14.5833 4.27558 15.5161 5.20833 16.6666 5.20833C17.8172 5.20833 18.75 4.27558 18.75 3.125V2.08333ZM7.72312 4.77685C6.90952 3.96327 5.59044 3.96327 4.77683 4.77685C3.96325 5.59046 3.96325 6.90954 4.77683 7.72315L6.86017 9.80648C7.67377 10.6201 8.99285 10.6201 9.80646 9.80648C10.62 8.99287 10.62 7.67379 9.80646 6.86019L7.72312 4.77685ZM28.5565 7.72315C29.37 6.90954 29.37 5.59046 28.5565 4.77685C27.7429 3.96327 26.4237 3.96327 25.6102 4.77685L23.5269 6.86019C22.7133 7.67379 22.7133 8.99287 23.5269 9.80648C24.3404 10.6201 25.6596 10.6201 26.4731 9.80648L28.5565 7.72315ZM2.08333 14.5833C0.93274 14.5833 0 15.5161 0 16.6667C0 17.8172 0.93274 18.75 2.08333 18.75H3.125C4.27558 18.75 5.20833 17.8172 5.20833 16.6667C5.20833 15.5161 4.27558 14.5833 3.125 14.5833H2.08333ZM31.25 14.5833C30.0994 14.5833 29.1667 15.5161 29.1667 16.6667C29.1667 17.8172 30.0994 18.75 31.25 18.75H32.2917C33.4423 18.75 34.375 17.8172 34.375 16.6667C34.375 15.5161 33.4423 14.5833 32.2917 14.5833H31.25ZM9.80648 26.4731C10.6201 25.6596 10.6201 24.3404 9.80648 23.5269C8.99287 22.7133 7.67379 22.7133 6.86019 23.5269L4.77685 25.6102C3.96327 26.4237 3.96327 27.7429 4.77685 28.5565C5.59046 29.37 6.90954 29.37 7.72315 28.5565L9.80648 26.4731ZM18.75 31.25C18.75 30.0994 17.8172 29.1667 16.6667 29.1667C15.5161 29.1667 14.5833 30.0994 14.5833 31.25V32.2917C14.5833 33.4423 15.5161 34.375 16.6667 34.375C17.8172 34.375 18.75 33.4423 18.75 32.2917V31.25ZM19.6129 10.4166C17.9857 8.78946 15.3476 8.78946 13.7204 10.4166L10.4167 13.7204C8.78948 15.3475 8.78948 17.9857 10.4167 19.6129L15.1935 24.3898L38.7204 47.9167C40.3475 49.5437 42.9858 49.5437 44.6129 47.9167L47.9167 44.6129C49.5437 42.9856 49.5437 40.3475 47.9167 38.7204L24.3898 15.1935L19.6129 10.4166ZM13.3629 16.6666L16.6667 13.3629L19.9704 16.6666L16.6667 19.9704L13.3629 16.6666ZM19.6129 22.9167L22.9167 19.6129L44.9704 41.6667L41.6667 44.9704L19.6129 22.9167Z" fill="white"/>
</g>
<defs>
<clipPath id="clip0_11_276">
<rect width="50" height="50" fill="white"/>
</clipPath>
</defs>
</svg>
